<?xml version="1.0" encoding="utf-8"?>
<!-- Generator: Adobe Illustrator 23.0.4, SVG Export Plug-In . SVG Version: 6.00 Build 0)  -->
<svg version="1.1" id="Capa_1" xmlns="http://www.w3.org/2000/svg" xmlns:xlink="http://www.w3.org/1999/xlink" x="0px" y="0px"
	 viewBox="0 0 297 297" style="enable-background:new 0 0 297 297;" xml:space="preserve">
<style type="text/css">
	.st0{fill:#FFFFFF;}
</style>
<path class="st0" d="M148.5,0C66.7,0,0.1,66.6,0.1,148.5S66.7,297,148.5,297s148.4-66.6,148.4-148.5S230.3,0,148.5,0z M158.6,276.4
	v-61.3c0-5.6-4.5-10.1-10.1-10.1s-10.1,4.5-10.1,10.1v61.3c-62.7-4.9-112.8-55.1-117.7-117.8h61.2c5.6,0,10.1-4.5,10.1-10.1
	s-4.5-10.1-10.1-10.1H20.7c4.9-62.7,55-112.9,117.7-117.8v61.3c0,5.6,4.5,10.1,10.1,10.1s10.1-4.5,10.1-10.1V20.6
	c62.7,4.9,112.8,55.1,117.7,117.8h-61.2c-5.6,0-10.1,4.5-10.1,10.1s4.5,10.1,10.1,10.1h61.2C271.4,221.3,221.3,271.5,158.6,276.4z"
	/>
</svg>
