<?xml version="1.0" encoding="utf-8"?>
<!-- Generator: Adobe Illustrator 23.0.4, SVG Export Plug-In . SVG Version: 6.00 Build 0)  -->
<svg version="1.1" id="Calque_1" xmlns="http://www.w3.org/2000/svg" xmlns:xlink="http://www.w3.org/1999/xlink" x="0px" y="0px"
	 viewBox="0 0 129 129" style="enable-background:new 0 0 129 129;" xml:space="preserve">
<style type="text/css">
	.st0{fill:#FFFFFF;}
</style>
<g>
	<g>
		<path class="st0" d="M64.5,2.6c-27.4,0-49.6,22.3-49.6,49.6c0,3.1,0.3,6.3,0.9,9.3c0,0.2,0.1,0.7,0.3,1.7c0.8,3.3,1.9,6.6,3.3,9.8
			c5.3,12.6,17.1,31.9,42.9,52.7c0.6,0.5,1.4,0.8,2.2,0.8c0.8,0,1.6-0.3,2.2-0.8c25.8-20.7,37.6-40.1,42.9-52.7
			c1.5-3.1,2.6-6.4,3.3-9.8c0.2-0.9,0.3-1.5,0.3-1.7c0.6-3.1,0.9-6.2,0.9-9.3C114.1,24.9,91.8,2.6,64.5,2.6z M106.3,60.3
			c0,0.1,0,0.1,0,0.2c0,0.1-0.1,0.5-0.2,1.1c0,0,0,0,0,0.1c-0.6,2.9-1.6,5.7-2.9,8.5c0,0,0,0.1-0.1,0.1
			c-4.9,11.5-15.5,29.1-38.7,48.2C41.3,99.3,30.7,81.7,25.8,70.2c0,0,0-0.1-0.1-0.1c-1.2-2.7-2.2-5.6-2.9-8.5c0,0,0,0,0-0.1
			c-0.2-0.6-0.2-1-0.2-1.1c0-0.1,0-0.1,0-0.2c-0.5-2.7-0.8-5.4-0.8-8.1C21.8,28.7,41,9.6,64.5,9.6s42.6,19.1,42.6,42.6
			C107.1,54.9,106.8,57.7,106.3,60.3z"/>
		<path class="st0" d="M64.5,21.2C47.1,21.2,33,35.4,33,52.8s14.2,31.5,31.5,31.5S96,70.1,96,52.8S81.8,21.2,64.5,21.2z M64.5,77.3
			c-13.5,0-24.5-11-24.5-24.5s11-24.5,24.5-24.5S89,39.3,89,52.8S78,77.3,64.5,77.3z"/>
	</g>
</g>
</svg>
